<svg width="16" height="14" fill="none" xmlns="http://www.w3.org/2000/svg">
  <path d="M10.58 8.08A2.583 2.583 0 0 1 8 10.66a2.583 2.583 0 0 1-2.58-2.58A2.583 2.583 0 0 1 8 5.5a2.584 2.584 0 0 1 2.58 2.58ZM16 4.416v7.329a1.77 1.77 0 0 1-1.77 1.769H1.77A1.77 1.77 0 0 1 0 11.744V4.417c0-.977.792-1.77 1.77-1.77h2.175v-.612c0-.855.693-1.548 1.548-1.548h5.014c.855 0 1.548.693 1.548 1.548v.612h2.176c.977 0 1.769.793 1.769 1.77ZM11.907 8.08A3.912 3.912 0 0 0 8 4.172 3.912 3.912 0 0 0 4.093 8.08 3.912 3.912 0 0 0 8 11.987a3.912 3.912 0 0 0 3.907-3.907Z" fill="#BEA69E"/>
</svg>
