<svg aria-hidden="true" style="position: absolute; width: 0; height: 0; overflow: hidden;" version="1.1" xmlns="http://www.w3.org/2000/svg" xmlns:xlink="http://www.w3.org/1999/xlink">
<defs>
<symbol id="icon-courses-arrow" viewBox="0 0 32 32">
<path stroke-linejoin="round" stroke-linecap="round" stroke-miterlimit="4" stroke-width="2.0800" d="M8 24l16-16M13.333 8h10.667v10.667"></path>
</symbol>
<symbol id="icon-header-camera" viewBox="0 0 32 32">
<path d="M21 17c0 2.761-2.239 5-5 5s-5-2.239-5-5v0c0-2.761 2.239-5 5-5s5 2.239 5 5v0z"></path>
<path d="M4 8c-2.209 0-4 1.791-4 4v0 12c0 2.209 1.791 4 4 4v0h24c2.209 0 4-1.791 4-4v0-12c0-2.209-1.791-4-4-4v0h-2.344c-1.104-0-2.104-0.448-2.828-1.172l-1.656-1.656c-0.724-0.724-1.724-1.172-2.828-1.172h-4.688c-1.104 0-2.104 0.448-2.828 1.172l-1.656 1.656c-0.724 0.724-1.724 1.172-2.828 1.172h-2.344zM5 12c-0.552 0-1-0.448-1-1s0.448-1 1-1v0c0.552 0 1 0.448 1 1s-0.448 1-1 1v0zM23 17c0 3.866-3.134 7-7 7s-7-3.134-7-7v0c0-3.866 3.134-7 7-7s7 3.134 7 7v0z"></path>
</symbol>
<symbol id="icon-header-camera-hover" viewBox="0 0 32 32">
<path d="M21 17c0 2.761-2.239 5-5 5s-5-2.239-5-5v0c0-2.761 2.239-5 5-5s5 2.239 5 5v0z"></path>
<path d="M4 8c-2.209 0-4 1.791-4 4v0 12c0 2.209 1.791 4 4 4v0h24c2.209 0 4-1.791 4-4v0-12c0-2.209-1.791-4-4-4v0h-2.344c-1.104-0-2.104-0.448-2.828-1.172l-1.656-1.656c-0.724-0.724-1.724-1.172-2.828-1.172h-4.688c-1.104 0-2.104 0.448-2.828 1.172l-1.656 1.656c-0.724 0.724-1.724 1.172-2.828 1.172h-2.344zM5 12c-0.552 0-1-0.448-1-1s0.448-1 1-1v0c0.552 0 1 0.448 1 1s-0.448 1-1 1v0zM23 17c0 3.866-3.134 7-7 7s-7-3.134-7-7v0c0-3.866 3.134-7 7-7s7 3.134 7 7v0z"></path>
</symbol>
<symbol id="icon-header-nav-mob" viewBox="0 0 32 32">
<path stroke-linejoin="miter" stroke-linecap="round" stroke-miterlimit="4" stroke-width="2" d="M5.87 8.667h25.13M5.87 22h25.13M13.522 15.333h17.478"></path>
</symbol>
<symbol id="icon-header-nav-tab" viewBox="0 0 32 32">
<path stroke-linejoin="miter" stroke-linecap="round" stroke-miterlimit="4" stroke-width="2.4" d="M6.070 8.351h24.73M6.070 21.927h24.73M13.722 15.139h17.078"></path>
</symbol>
<symbol id="icon-header-x-mob" viewBox="0 0 32 32">
<path stroke-linejoin="round" stroke-linecap="round" stroke-miterlimit="4" stroke-width="3" d="M24 8l-16 16M8 8l16 16"></path>
</symbol>
<symbol id="icon-header-x-tab" viewBox="0 0 32 32">
<path stroke-linejoin="round" stroke-linecap="round" stroke-miterlimit="4" stroke-width="2.4" d="M24 8l-16 16M8 8l16 16"></path>
</symbol>
<symbol id="hero-icon-arrow" viewBox="0 0 58 32">
<path d="M40 2.144 57.6 16 40 29.856V18.4H0v-4.8h40V2.144z"/>
</symbol>
<symbol id="hero-icon-star" viewBox="0 0 32 32">
<path stroke-linecap="round" stroke-linejoin="round" stroke-width="2.4" d="m16 2.667 4.12 8.347 9.213 1.347-6.667 6.493 1.573 9.173-8.24-4.333-8.24 4.333 1.573-9.173-6.667-6.493 9.213-1.347 4.12-8.347z"/>
</symbol>
<symbol id="icon-kit-arrow" viewBox="0 0 32 32">
<path d="M15.322 7.144l11.194-0.349-2.288 10.963-3.682-4.387-15.322 12.856-1.542-1.84 15.322-12.854-3.682-4.389z"></path>
</symbol>
<symbol id="icon-kit-arrow-hover" viewBox="0 0 32 32">
<path d="M15.322 7.144l11.194-0.349-2.288 10.963-3.682-4.387-15.322 12.856-1.542-1.84 15.322-12.854-3.682-4.389z"></path>
</symbol>
<symbol id="icon-reviews-star-mob" viewBox="0 0 32 32">
<path stroke-linejoin="round" stroke-linecap="round" stroke-miterlimit="4" stroke-width="3" d="M16 4l3.708 7.9 8.292 1.274-6 6.144 1.416 8.682-7.416-4.1-7.416 4.1 1.416-8.68-6-6.148 8.292-1.274 3.708-7.898z"></path>
</symbol>
<symbol id="icon-reviews-star-others" viewBox="0 0 32 32">
<path stroke-linejoin="round" stroke-linecap="round" stroke-miterlimit="4" stroke-width="2.4" d="M16 3.2l3.955 7.899 8.845 1.274-6.4 6.146 1.51 8.682-7.91-4.101-7.91 4.101 1.51-8.682-6.4-6.144 8.845-1.275 3.955-7.899z"></path>
</symbol>
<symbol id="icon-header-footer-logo-mob" viewBox="0 0 203 32">
<path d="M16.534 17.72h-11.202v10.589h-5.333v-25.109h18.146v4.387h-12.813v5.709h11.202v4.424zM27.344 24.678c3.030 0 4.565-1.891 4.565-5.672s-1.534-5.635-4.565-5.635c-3.030 0-4.565 1.854-4.565 5.635s1.534 5.672 4.565 5.672zM27.344 28.8c-6.099 0-9.706-4.008-9.706-9.794 0-5.899 3.722-9.794 9.706-9.794 5.907 0 9.59 3.856 9.59 9.792 0 5.901-3.72 9.795-9.59 9.795zM50.71 21.578h5.024c-0.534 4.31-4.102 7.222-8.669 7.222-5.141 0-8.672-3.365-8.672-10.021s3.531-9.568 8.826-9.568c4.91 0 8.248 2.762 8.554 7.149h-5.024c-0.269-1.93-1.688-3.064-3.568-3.064-2.112 0-3.837 1.323-3.837 5.37s1.726 6.013 3.683 6.013 3.491-1.096 3.683-3.101zM74.205 28.309h-4.72v-2.61c-1.301 2.117-3.258 3.101-5.869 3.101-3.76 0-6.406-2.76-6.406-6.845v-12.251h4.987v11.496c0 2.344 1.075 3.478 3.184 3.478 2.533 0 3.875-1.776 3.875-4.235v-10.739h4.949v18.605zM92.542 15.338h-4.795c-0.269-1.814-1.266-2.458-3.53-2.458-1.88 0-2.954 0.454-2.954 1.552 0 1.096 1.035 1.549 3.069 2.117 2.149 0.605 4.181 1.021 5.64 1.587 1.994 0.795 3.107 2.080 3.107 4.501 0 3.856-2.878 6.163-8.248 6.163-5.792 0-9.016-2.685-9.093-6.466h5.141c0 1.739 1.496 2.76 3.914 2.76 1.765 0 3.338-0.53 3.338-1.928 0-1.325-1.421-1.741-3.032-2.118-3.184-0.757-4.949-1.285-6.291-2.117-1.765-1.098-2.378-2.534-2.378-4.198 0-3.138 2.186-5.52 7.941-5.52 5.448 0 7.904 2.117 8.171 6.125zM99.704 28.309h-5.333v-5.104h5.333v5.104zM118.061 17.72h-11.2v10.589h-5.334v-25.109h18.146v4.387h-12.813v5.709h11.202v4.424zM125.248 28.309h-4.987v-18.605h4.682v2.23c1.648-2.496 3.568-2.722 5.6-2.722h0.653v5.027c-0.414-0.071-0.89-0.112-1.376-0.112-0.002 0-0.004 0-0.005 0h0c-3.069 0-4.565 1.51-4.565 4.499v9.68zM143.083 21.237l0.038-2.042c-0.499 0.491-1.381 0.757-3.222 1.096-2.84 0.53-3.76 1.325-3.76 2.912 0 1.4 0.843 2.080 2.416 2.080 2.571 0 4.49-1.853 4.528-4.046zM148.107 28.309h-4.64c-0.158-0.489-0.267-1.056-0.306-1.643l-0.001-0.021c-1.19 1.285-3.184 2.155-5.717 2.155-4.296 0-6.291-2.080-6.291-5.104 0-5.371 3.645-5.976 8.67-6.656 2.493-0.341 3.184-0.832 3.184-2.118 0-1.21-1.227-1.928-3.184-1.928-2.264 0-3.184 1.096-3.414 2.76h-4.642c0.077-3.856 2.224-6.541 8.286-6.541 5.984 0 8.056 2.646 8.056 7.336v11.76zM177.315 28.309h-4.872v-11.269c0-2.23-1.189-3.819-2.954-3.819-1.842 0-3.184 1.701-3.184 3.971v11.117h-4.987v-11.194c0-2.987-0.806-3.744-2.992-3.744-1.995 0-3.032 1.211-3.032 3.632v11.306h-4.987v-18.605h4.682v2.723c1.264-2.459 3.030-3.216 5.523-3.216 2.571 0 3.798 0.795 5.256 2.95 1.035-2.042 2.723-2.949 5.102-2.949 3.798 0 6.445 2.722 6.445 6.202v12.894zM183.949 17.192h7.71c-0.077-2.762-1.918-4.085-3.875-4.085-1.994 0-3.643 1.512-3.835 4.085zM196.8 20.29h-13.005c0.154 2.8 1.765 4.614 4.219 4.614 1.611 0 3.030-0.795 3.376-2.080h5.141c-1.15 3.819-4.258 5.974-8.286 5.974-6.291 0-9.437-3.403-9.437-10.134 0-5.747 3.338-9.453 9.13-9.453 5.794 0 8.862 3.706 8.862 11.078z"></path>
</symbol>
<symbol id="icon-header-footer-logo-others" viewBox="0 0 233 32">
<path d="M19.471 17.348h-13.192v12.649h-6.28v-29.997h21.368v5.24h-15.089v6.822h13.192v5.286zM32.201 25.66c3.569 0 5.376-2.259 5.376-6.776s-1.807-6.731-5.376-6.731-5.376 2.214-5.376 6.731c0 4.518 1.807 6.776 5.376 6.776zM32.201 30.584c-7.183 0-11.43-4.789-11.43-11.701 0-7.048 4.382-11.701 11.43-11.701 6.957 0 11.294 4.608 11.294 11.701 0 7.048-4.382 11.701-11.294 11.701zM59.716 21.956h5.918c-0.632 5.15-4.834 8.629-10.21 8.629-6.054 0-10.21-4.021-10.21-11.972s4.156-11.43 10.391-11.43c5.783 0 9.713 3.298 10.074 8.538h-5.918c-0.316-2.304-1.988-3.659-4.201-3.659-2.485 0-4.518 1.581-4.518 6.415s2.033 7.183 4.337 7.183c2.304 0 4.111-1.31 4.337-3.704zM87.384 29.997h-5.559v-3.117c-1.536 2.53-3.84 3.704-6.912 3.704-4.427 0-7.544-3.298-7.544-8.177v-14.637h5.873v13.734c0 2.801 1.265 4.156 3.75 4.156 2.982 0 4.563-2.123 4.563-5.060v-12.83h5.828v22.227zM108.979 14.502h-5.647c-0.316-2.168-1.491-2.936-4.156-2.936-2.214 0-3.479 0.542-3.479 1.852s1.22 1.852 3.614 2.53c2.53 0.723 4.924 1.22 6.641 1.897 2.349 0.949 3.659 2.485 3.659 5.376 0 4.608-3.388 7.364-9.713 7.364-6.822 0-10.616-3.208-10.707-7.725h6.054c0 2.078 1.762 3.298 4.608 3.298 2.078 0 3.93-0.632 3.93-2.304 0-1.581-1.672-2.078-3.569-2.53-3.75-0.904-5.828-1.536-7.409-2.53-2.078-1.31-2.801-3.027-2.801-5.015 0-3.75 2.575-6.596 9.352-6.596 6.415 0 9.306 2.53 9.623 7.319zM117.412 29.997h-6.278v-6.099h6.28v6.099zM139.031 17.348h-13.192v12.649h-6.28v-29.997h21.368v5.24h-15.089v6.822h13.192v5.286zM147.494 29.997h-5.873v-22.227h5.512v2.665c1.943-2.982 4.201-3.253 6.596-3.253h0.768v6.008c-0.489-0.086-1.052-0.135-1.626-0.136h-0c-3.614 0-5.376 1.807-5.376 5.376v11.565zM168.495 21.549l0.045-2.44c-0.587 0.587-1.626 0.904-3.795 1.31-3.343 0.632-4.427 1.581-4.427 3.479 0 1.672 0.994 2.485 2.846 2.485 3.027 0 5.286-2.214 5.331-4.834zM174.413 29.997h-5.466c-0.186-0.584-0.315-1.262-0.36-1.962l-0.001-0.026c-1.4 1.536-3.75 2.575-6.731 2.575-5.060 0-7.409-2.485-7.409-6.099 0-6.415 4.292-7.138 10.21-7.951 2.936-0.407 3.75-0.994 3.75-2.53 0-1.446-1.446-2.304-3.75-2.304-2.665 0-3.75 1.31-4.021 3.298h-5.466c0.090-4.608 2.62-7.816 9.758-7.816 7.048 0 9.487 3.162 9.487 8.764v14.050zM208.808 29.997h-5.737v-13.463c0-2.665-1.4-4.563-3.479-4.563-2.168 0-3.75 2.033-3.75 4.744v13.282h-5.873v-13.372c0-3.569-0.949-4.472-3.524-4.472-2.349 0-3.569 1.446-3.569 4.337v13.508h-5.873v-22.227h5.512v3.253c1.491-2.936 3.569-3.84 6.505-3.84 3.027 0 4.472 0.949 6.189 3.524 1.22-2.44 3.208-3.524 6.008-3.524 4.472 0 7.59 3.253 7.59 7.409v15.405zM216.619 16.715h9.080c-0.090-3.298-2.259-4.879-4.563-4.879-2.349 0-4.292 1.807-4.518 4.879zM231.753 20.42h-15.315c0.181 3.343 2.078 5.512 4.969 5.512 1.897 0 3.569-0.949 3.976-2.485h6.054c-1.355 4.563-5.015 7.138-9.758 7.138-7.409 0-11.113-4.066-11.113-12.107 0-6.867 3.93-11.294 10.752-11.294s10.436 4.427 10.436 13.237z"></path>
</symbol>
<symbol id="icon-vector" viewBox="0 0 34 32">
<path d="M16.128 6.678l11.783-0.367-2.408 11.54-3.875-4.618-16.128 13.533-1.624-1.937 16.128-13.531-3.875-4.62z"></path>
</symbol>
</defs>
</svg>
